Surrogates (2009) R5 DVDRip XviD-MAX (BEST QUALITY) 
http://torrents.thepiratebay.org/5136374/Surrogates_(2009)_DVDRip_XviD-MAX.5136374.TPB.torrent

Surrogates (2009) TS XviD-MAX

Format                           : AVI
Format/Info                      : Audio Video Interleave
File size                        : 810 MiB
Duration                         : 1h 24mn
Overall bit rate                 : 1 341 Kbps
Writing application              : VirtualDubMod 1.5.10.2 (build 2542/release)
Writing library                  : VirtualDubMod build 2542/release
Original source form             : MAX TORRENTZ
Copyright                        : SIGISMUNT

Video
Format                           : xvid
Codec ID                         : xvid
Duration                         : 1h 24mn
Bit rate                         : 1 200 Kbps
Width                            : 704 pixels
Height                           : 366 pixels
Display aspect ratio             : 1.923
Frame rate                       : 23.976 fps
Resolution                       : 24 bits
Bits/(Pixel*Frame)               : 0.194
Stream size                      : 725 MiB (90%)

Audio
ID                               : 1
Format                           : MPEG Audio
Format version                   : Version 1
Format profile                   : Layer 3
Codec ID                         : 55
Codec ID/Hint                    : MP3
Duration                         : 1h 24mn
Bit rate mode                    : Constant
Bit rate                         : 128 Kbps
Channel(s)                       : 2 channels
Sampling rate                    : 48.0 KHz
Resolution                       : 16 bits
Stream size                      : 77.3 MiB (10%)
Alignment                        : Aligned on interleaves
Interleave, duration             : 24 ms (0.58 video frame)
Interleave, preload duration     : 24 ms

Screens: 
http://www.postimg.com/image/7000/6736.jpg 
http://www.postimg.com/image/7000/6737.jpg 
http://www.postimg.com/image/7000/6738.jpg 
http://www.postimg.com/image/7000/6739.jpg 
http://www.postimg.com/image/7000/6740.jpg

ScreenCaps: 
http://www.postimg.com/image/7000/6741.jpg


